<?xml version="1.0" encoding="utf-8"?>
<svg xmlns="http://www.w3.org/2000/svg" viewBox="0 0 50 50" width="500" height="500">
  <path d="M2 2C0.898438 2 0 2.898438 0 4L0 40C0 41.101563 0.898438 42 2 42L48 42C49.101563 42 50 41.101563 50 40L50 4C50 2.898438 49.101563 2 48 2 Z M 6 7L44 7C44.550781 7 45 7.449219 45 8L45 32C45 32.550781 44.550781 33 44 33L6 33C5.449219 33 5 32.550781 5 32L5 8C5 7.449219 5.449219 7 6 7 Z M 25.1875 14.65625C24.867188 14.628906 24.457031 14.683594 24.03125 14.90625C23.132813 15.371094 23.261719 16.359375 23.40625 18.375C23.445313 18.917969 22.933594 19.300781 22.46875 20C22.085938 20.578125 21.832031 21.167969 21.625 21.6875C21.40625 22.230469 21.363281 22.347656 21.4375 22.71875C21.542969 22.628906 21.679688 22.554688 21.875 22.5625C21.929688 22.5625 22.03125 22.589844 22.21875 22.75C22.164063 22.683594 22.144531 22.605469 22.125 22.5625C22.046875 22.398438 22 22.214844 22.03125 21.9375C22.074219 21.558594 22.195313 21.253906 22.34375 20.9375C22.398438 20.820313 22.566406 20.5 22.59375 20.53125C22.625 20.570313 22.519531 20.675781 22.34375 21.09375C22.183594 21.484375 22.121094 21.636719 22.09375 21.9375C22.070313 22.199219 22.113281 22.445313 22.1875 22.59375C22.226563 22.671875 22.273438 22.738281 22.34375 22.8125C22.335938 22.757813 22.347656 22.691406 22.34375 22.5625C22.328125 22.09375 22.421875 21.882813 22.5 21.53125C22.566406 21.238281 22.800781 20.875 22.9375 20.5625C23.03125 20.476563 23.105469 20.421875 23.1875 20.375C23.34375 20.285156 23.546875 20.25 23.5625 20.1875C23.578125 20.125 23.308594 20.070313 23.25 19.875C23.230469 19.8125 23.230469 19.761719 23.25 19.6875C23.292969 19.601563 23.355469 19.519531 23.40625 19.4375C23.597656 19.144531 23.6875 19.128906 23.6875 18.9375C23.6875 18.699219 23.695313 18.640625 23.71875 18.46875C23.59375 18.347656 23.472656 18.210938 23.46875 18.03125C23.460938 17.804688 23.601563 17.714844 23.75 17.59375C23.757813 17.589844 23.742188 17.566406 23.75 17.5625C23.726563 17.527344 23.703125 17.484375 23.6875 17.4375C23.625 17.253906 23.617188 17.152344 23.625 16.875C23.628906 16.773438 23.652344 16.671875 23.6875 16.59375C23.742188 16.480469 23.8125 16.417969 23.875 16.40625C23.980469 16.386719 24.144531 16.386719 24.25 16.53125C24.359375 16.683594 24.4375 16.765625 24.4375 17C24.4375 17.054688 24.441406 17.085938 24.4375 17.125C24.472656 17.117188 24.5 17.128906 24.53125 17.125C24.554688 17.125 24.597656 17.128906 24.625 17.125C24.65625 17.121094 24.683594 17.125 24.71875 17.125C24.78125 17.125 24.863281 17.109375 24.9375 17.125C24.933594 17.097656 24.9375 17.09375 24.9375 17.0625C24.933594 16.839844 24.890625 16.863281 24.96875 16.6875C25.042969 16.523438 25.203125 16.285156 25.53125 16.3125C25.746094 16.328125 25.820313 16.363281 25.96875 16.625C26.125 16.898438 26.117188 17.132813 26.0625 17.34375C26.039063 17.425781 26.015625 17.503906 25.96875 17.5625C26.105469 17.636719 26.199219 17.734375 26.1875 17.90625C26.175781 18.101563 26.140625 18.238281 26.0625 18.34375C26.109375 18.472656 26.144531 18.660156 26.28125 18.875C26.53125 19.265625 26.535156 19.542969 26.8125 20.15625C26.953125 20.464844 27.117188 20.691406 27.21875 21.03125C27.328125 21.394531 27.375 21.890625 27.375 22.375C27.375 22.480469 27.359375 22.65625 27.34375 22.8125C27.414063 22.828125 27.472656 22.847656 27.53125 22.90625C27.636719 23.011719 27.644531 23.1875 27.625 23.34375L27.59375 23.375C27.589844 23.410156 27.605469 23.421875 27.65625 23.46875C27.664063 23.476563 27.679688 23.492188 27.6875 23.5C27.738281 23.546875 27.796875 23.582031 27.9375 23.59375C27.964844 23.597656 27.972656 23.59375 28 23.59375C28.113281 23.59375 28.152344 23.574219 28.21875 23.53125C28.320313 23.46875 28.464844 23.355469 28.5 23.3125C28.515625 23.292969 28.535156 23.230469 28.5625 23.1875C28.617188 23.097656 28.675781 23.042969 28.71875 23C28.703125 22.988281 28.671875 22.960938 28.65625 22.9375C28.605469 22.863281 28.519531 22.820313 28.40625 22.78125C28.292969 22.742188 28.128906 22.722656 28.0625 22.71875C28 22.714844 27.820313 22.71875 27.71875 22.75C27.621094 22.78125 27.578125 22.863281 27.53125 22.875C27.484375 22.882813 27.542969 22.800781 27.625 22.75C27.671875 22.71875 27.761719 22.699219 27.84375 22.6875C27.867188 22.632813 27.929688 22.5 27.96875 22.375C28.015625 22.210938 28.027344 22.121094 28.0625 21.875C28.113281 21.515625 27.972656 21.054688 27.71875 20.71875C27.4375 20.34375 27.171875 20.277344 27.1875 20.25C27.207031 20.214844 27.503906 20.40625 27.59375 20.5C27.65625 20.566406 27.667969 20.652344 27.71875 20.71875C27.90625 20.972656 28.046875 21.199219 28.09375 21.5C28.15625 21.929688 28.007813 22.46875 27.9375 22.625C27.925781 22.652344 27.886719 22.667969 27.875 22.6875C27.925781 22.683594 27.996094 22.6875 28.03125 22.6875C28.148438 22.695313 28.28125 22.6875 28.28125 22.6875C28.28125 22.6875 28.390625 22.707031 28.5 22.75C28.605469 22.792969 28.738281 22.886719 28.75 22.96875C28.773438 22.953125 28.8125 22.941406 28.84375 22.9375C28.867188 22.933594 28.886719 22.9375 28.9375 22.9375C28.960938 22.9375 29.011719 22.933594 29.03125 22.9375C29.074219 22.824219 29.105469 22.710938 29.125 22.625C29.300781 21.90625 28.75 20.660156 28.21875 19.90625C27.6875 19.152344 27.246094 18.703125 27.03125 17.75C26.8125 16.796875 27.066406 17.082031 26.875 16.25C26.78125 15.835938 26.621094 15.5 26.4375 15.28125C26.253906 15.058594 25.996094 14.941406 25.875 14.875C25.734375 14.800781 25.507813 14.683594 25.1875 14.65625 Z M 25.8125 15.25C25.855469 15.253906 25.957031 15.371094 25.96875 15.46875C25.976563 15.535156 25.726563 15.65625 25.65625 15.625C25.582031 15.597656 25.628906 15.3125 25.65625 15.28125C25.679688 15.242188 25.769531 15.246094 25.8125 15.25 Z M 25.65625 16.15625C25.652344 16.140625 25.773438 16.15625 25.84375 16.1875C25.902344 16.210938 25.945313 16.316406 26 16.375C26.015625 16.390625 26.054688 16.394531 26.0625 16.40625C26.097656 16.460938 26.148438 16.554688 26.125 16.5625C26.101563 16.570313 26.039063 16.417969 26 16.375C25.960938 16.332031 25.855469 16.234375 25.8125 16.21875C25.769531 16.203125 25.65625 16.175781 25.65625 16.15625 Z M 24.0625 16.25C24.0625 16.21875 24.222656 16.265625 24.3125 16.34375C24.429688 16.449219 24.503906 16.558594 24.46875 16.5625C24.433594 16.566406 24.394531 16.476563 24.28125 16.375C24.171875 16.277344 24.066406 16.28125 24.0625 16.25 Z M 23.96875 16.78125C23.894531 16.78125 23.824219 16.808594 23.78125 16.875C23.722656 16.964844 23.75 17.054688 23.75 17.125C23.75 17.238281 23.820313 17.375 23.84375 17.40625C23.90625 17.472656 23.917969 17.519531 23.96875 17.53125C23.941406 17.550781 23.925781 17.574219 23.90625 17.59375C23.714844 17.757813 23.585938 17.824219 23.59375 18.03125C23.597656 18.226563 23.765625 18.390625 23.9375 18.53125C24.109375 18.671875 24.238281 18.835938 24.34375 18.875C24.453125 18.914063 24.648438 18.90625 24.78125 18.90625C25.085938 18.90625 25.46875 18.535156 25.6875 18.46875C25.960938 18.382813 26.074219 18.234375 26.09375 17.90625C26.109375 17.671875 25.804688 17.605469 25.53125 17.53125C25.609375 17.515625 25.699219 17.476563 25.75 17.40625C25.804688 17.332031 25.828125 17.214844 25.8125 17.125C25.777344 16.925781 25.675781 16.78125 25.5 16.78125C25.425781 16.78125 25.363281 16.792969 25.3125 16.84375C25.246094 16.917969 25.1875 16.996094 25.1875 17.125C25.1875 17.207031 25.195313 17.328125 25.21875 17.40625C25.191406 17.386719 25.15625 17.367188 25.125 17.34375C25.019531 17.265625 24.796875 17.230469 24.625 17.25C24.503906 17.265625 24.429688 17.253906 24.3125 17.3125C24.285156 17.328125 24.25 17.324219 24.21875 17.34375C24.230469 17.277344 24.25 17.230469 24.25 17.15625C24.25 17.054688 24.199219 16.9375 24.15625 16.875C24.113281 16.8125 24.039063 16.78125 23.96875 16.78125 Z M 24.03125 16.875C24.054688 16.878906 24.078125 16.914063 24.09375 16.9375C24.121094 16.988281 24.109375 17.089844 24.09375 17.09375C24.054688 17.109375 24.070313 17.046875 24.03125 17C23.996094 16.953125 23.957031 16.933594 23.96875 16.90625C23.976563 16.894531 24.007813 16.871094 24.03125 16.875 Z M 25.5625 16.875C25.582031 16.855469 25.609375 16.886719 25.65625 16.9375C25.703125 16.988281 25.691406 17.035156 25.65625 17.0625C25.621094 17.089844 25.617188 16.996094 25.59375 16.96875C25.550781 16.929688 25.527344 16.910156 25.5625 16.875 Z M 24.84375 17.375C24.886719 17.375 24.921875 17.363281 24.9375 17.375C24.972656 17.398438 25.003906 17.480469 24.96875 17.5C24.953125 17.507813 24.949219 17.492188 24.90625 17.46875C24.863281 17.441406 24.777344 17.457031 24.75 17.40625C24.742188 17.390625 24.800781 17.375 24.84375 17.375 Z M 24.34375 17.40625C24.4375 17.394531 24.464844 17.402344 24.40625 17.4375C24.390625 17.445313 24.375 17.476563 24.34375 17.5C24.316406 17.527344 24.242188 17.488281 24.25 17.46875C24.257813 17.449219 24.246094 17.425781 24.34375 17.40625 Z M 25.78125 17.875C25.835938 17.851563 25.84375 17.859375 25.875 17.875C25.945313 17.90625 25.746094 18.007813 25.59375 18.09375C25.433594 18.183594 25.382813 18.230469 25.15625 18.34375C24.929688 18.453125 24.738281 18.53125 24.5625 18.53125C24.488281 18.53125 24.371094 18.546875 24.25 18.53125C24.25 18.53125 24.113281 18.492188 24.0625 18.46875C23.976563 18.425781 23.863281 18.347656 23.78125 18.28125C23.714844 18.226563 23.679688 18.199219 23.65625 18.125C23.648438 18.097656 23.671875 18.089844 23.6875 18.09375C23.730469 18.121094 23.863281 18.234375 23.9375 18.28125C23.957031 18.300781 24.007813 18.355469 24.0625 18.375C24.152344 18.40625 24.261719 18.4375 24.34375 18.4375C24.417969 18.4375 24.53125 18.445313 24.625 18.4375C24.722656 18.429688 24.871094 18.355469 24.96875 18.3125C25.183594 18.21875 25.316406 18.164063 25.53125 18.03125C25.640625 17.964844 25.726563 17.898438 25.78125 17.875 Z M 26.53125 18.1875C26.558594 18.191406 26.589844 18.214844 26.625 18.25C26.699219 18.320313 26.78125 18.304688 26.84375 18.375C26.90625 18.445313 26.976563 18.546875 26.875 18.65625C26.820313 18.714844 26.726563 18.695313 26.59375 18.5625C26.460938 18.425781 26.449219 18.242188 26.46875 18.21875C26.484375 18.203125 26.503906 18.183594 26.53125 18.1875 Z M 21.875 22.75C21.683594 22.746094 21.585938 22.847656 21.46875 22.96875C21.347656 23.089844 21.210938 23.378906 21 23.53125C20.789063 23.683594 20.230469 23.664063 20.09375 23.84375C19.960938 24.019531 20.128906 24.304688 20.125 24.78125C20.125 24.984375 20.085938 25.125 20.0625 25.25C20.03125 25.40625 19.996094 25.511719 20.0625 25.625C20.183594 25.824219 20.375 25.863281 21.46875 26.09375C22.054688 26.214844 22.597656 26.53125 22.96875 26.5625C23.339844 26.589844 23.429688 26.480469 23.65625 26.28125C23.878906 26.082031 23.945313 26.128906 23.9375 25.6875C23.929688 25.246094 23.664063 25.128906 23.34375 24.625C23.023438 24.117188 22.960938 24.023438 22.75 23.6875C22.539063 23.355469 22.113281 22.757813 21.875 22.75 Z M 27.125 22.96875C26.976563 22.96875 26.96875 22.984375 26.84375 23.0625C26.777344 23.105469 26.75 23.394531 26.75 23.71875C26.75 23.976563 26.742188 24.265625 26.71875 24.5C26.664063 25.046875 26.574219 25.367188 26.5625 25.71875C26.550781 26.074219 26.671875 26.3125 26.78125 26.40625C26.886719 26.503906 27.03125 26.5625 27.375 26.5625C27.722656 26.5625 27.957031 26.476563 28.1875 26.25C28.335938 26.101563 28.484375 25.964844 28.9375 25.65625C29.296875 25.414063 29.828125 25.136719 29.9375 25.03125C29.988281 24.976563 30.085938 24.941406 30.09375 24.75C30.097656 24.578125 29.972656 24.527344 29.875 24.46875C29.742188 24.394531 29.390625 24.117188 29.21875 23.84375C29.113281 23.675781 29.269531 23.398438 29.125 23.1875C29.039063 23.0625 28.867188 23.09375 28.84375 23.09375C28.820313 23.09375 28.679688 23.339844 28.625 23.40625C28.566406 23.476563 28.417969 23.589844 28.3125 23.65625C28.207031 23.722656 28.136719 23.765625 27.90625 23.75C27.679688 23.730469 27.601563 23.652344 27.53125 23.59375C27.457031 23.53125 27.390625 23.496094 27.40625 23.34375C27.421875 23.191406 27.453125 23.078125 27.40625 23.03125C27.355469 22.980469 27.273438 22.96875 27.125 22.96875 Z M 22.46875 23C22.59375 23.148438 22.734375 23.324219 22.90625 23.59375C23.003906 23.75 23.085938 23.855469 23.15625 23.96875C23.238281 24.105469 23.328125 24.257813 23.5 24.53125C23.527344 24.578125 23.566406 24.617188 23.59375 24.65625C23.691406 24.636719 23.769531 24.625 23.8125 24.5625C23.917969 24.40625 23.851563 24.207031 23.78125 24.09375C23.714844 23.984375 23.234375 23.640625 23 23.4375C22.777344 23.242188 22.640625 23.117188 22.5 23C22.488281 22.992188 22.476563 23.007813 22.46875 23 Z M 26.53125 24.59375C26.203125 24.902344 25.757813 25.207031 25.1875 25.3125C24.648438 25.414063 24.28125 25.402344 24.0625 25.34375C24.105469 25.449219 24.121094 25.574219 24.125 25.71875C24.128906 25.84375 24.140625 25.921875 24.125 26C24.261719 25.964844 24.390625 25.996094 24.875 25.96875C25.570313 25.929688 25.800781 25.898438 26.375 26.03125C26.359375 25.941406 26.371094 25.824219 26.375 25.71875C26.378906 25.523438 26.398438 25.367188 26.4375 25.15625C26.464844 25 26.507813 24.800781 26.53125 24.59375 Z M 44 35C45.105469 35 46 35.894531 46 37C46 38.105469 45.105469 39 44 39C42.894531 39 42 38.105469 42 37C42 35.894531 42.894531 35 44 35 Z M 19 43L19 45L14.875 45C13.28125 45 12 46.347656 12 48L12 50L38 50L38 48C38 46.347656 36.71875 45 35.125 45L31 45L31 43Z" fill="#4A4A44" />
</svg>