<?xml version="1.0" encoding="utf-8"?>
<svg xmlns="http://www.w3.org/2000/svg" viewBox="0 0 50 50" width="500" height="500">
  <path d="M2 2C0.898438 2 0 2.898438 0 4L0 40C0 41.105469 0.898438 42 2 42L48 42C49.105469 42 50 41.105469 50 40L50 4C50 2.898438 49.105469 2 48 2 Z M 6 7L44 7C44.550781 7 45 7.449219 45 8L45 32C45 32.550781 44.550781 33 44 33L6 33C5.449219 33 5 32.550781 5 32L5 8C5 7.449219 5.449219 7 6 7 Z M 27.1875 14.65625C26.566406 14.699219 25.828125 15.078125 25.40625 15.59375C25.023438 16.0625 24.722656 16.765625 24.84375 17.4375C25.523438 17.460938 26.21875 17.054688 26.625 16.53125C27.003906 16.042969 27.292969 15.359375 27.1875 14.65625 Z M 22.96875 17.34375C22.078125 17.34375 21.160156 17.890625 20.5625 18.8125C19.71875 20.113281 19.851563 22.574219 21.21875 24.65625C21.707031 25.398438 22.363281 26.210938 23.21875 26.21875C23.976563 26.230469 24.191406 25.753906 25.21875 25.75C26.25 25.738281 26.429688 26.226563 27.1875 26.21875C28.039063 26.210938 28.730469 25.304688 29.21875 24.5625C29.570313 24.03125 29.695313 23.757813 29.96875 23.15625C27.992188 22.410156 27.703125 19.601563 29.65625 18.53125C29.058594 17.789063 28.195313 17.34375 27.40625 17.34375C26.359375 17.34375 25.914063 17.84375 25.1875 17.84375C24.441406 17.84375 23.871094 17.34375 22.96875 17.34375 Z M 25 35C26.105469 35 27 35.894531 27 37C27 38.105469 26.105469 39 25 39C23.894531 39 23 38.105469 23 37C23 35.894531 23.894531 35 25 35 Z M 19 43L19 45L14.875 45C13.28125 45 12 46.347656 12 48L12 50L38 50L38 48C38 46.347656 36.71875 45 35.125 45L31 45L31 43Z" fill="#4A4A44" />
</svg>