<?xml version="1.0" encoding="utf-8"?>
<svg xmlns="http://www.w3.org/2000/svg" viewBox="0 0 50 50" width="500" height="500">
  <path d="M2 2C0.898438 2 0 2.898438 0 4L0 40C0 41.105469 0.898438 42 2 42L48 42C49.105469 42 50 41.105469 50 40L50 4C50 2.898438 49.105469 2 48 2 Z M 6 7L44 7C44.550781 7 45 7.449219 45 8L45 32C45 32.550781 44.550781 33 44 33L6 33C5.449219 33 5 32.550781 5 32L5 8C5 7.449219 5.449219 7 6 7 Z M 31 14.75L24.5625 15.65625L24.5625 20.28125L31 20.28125 Z M 23.625 15.78125L19 16.4375L19 20.28125L23.625 20.28125 Z M 19 21.21875L19 25.09375L23.625 25.71875L23.625 21.21875 Z M 24.5625 21.21875L24.5625 25.84375L31 26.75L31 21.21875 Z M 43 35C44.105469 35 45 35.894531 45 37C45 38.105469 44.105469 39 43 39C41.894531 39 41 38.105469 41 37C41 35.894531 41.894531 35 43 35 Z M 19 43L19 45L14.875 45C13.28125 45 12 46.347656 12 48L12 50L38 50L38 48C38 46.347656 36.71875 45 35.125 45L31 45L31 43Z" fill="#4A4A44" />
</svg>